<svg xmlns="http://www.w3.org/2000/svg" width="186.42" height="167.778" viewBox="0 0 186.42 167.778"><defs><style>.a{fill:#a8a8a8;}.b{fill:#cbcbcb;}.c{fill:#683b0d;}.d{fill:#6ee7f5;}.e{fill:#2cbff4;}.f{fill:#eaeae8;}.g{fill:#533222;}.h{fill:#d32b39;}.i{fill:#fbb540;}</style></defs><g transform="translate(-16 -40)"><path class="a" d="M145.321,254.214h-6.214a3.107,3.107,0,1,1,0-6.214h6.214a3.107,3.107,0,1,1,0,6.214Z" transform="translate(-73.395 -127.218)"/><path class="b" d="M119.535,247.07a3.107,3.107,0,0,1-3.107-3.107V225.321a3.107,3.107,0,0,0-6.214,0v6.214a3.107,3.107,0,0,1-6.214,0v-6.214a9.321,9.321,0,0,1,18.642,0v18.642A3.107,3.107,0,0,1,119.535,247.07Z" transform="translate(-53.823 -107.646)"/><path class="b" d="M252.428,238.214h-9.321a3.107,3.107,0,0,1,0-6.214h9.321a3.107,3.107,0,0,1,0,6.214Z" transform="translate(-137.004 -117.432)"/><path class="c" d="M25.554,356.354H152.941a1.554,1.554,0,0,0,1.553-1.554V289.553A1.553,1.553,0,0,0,152.941,288H142.066v3.107H92.354V288h-66.8A1.554,1.554,0,0,0,24,289.553V354.8A1.554,1.554,0,0,0,25.554,356.354Z" transform="translate(-4.893 -151.683)"/><path class="b" d="M200,288h49.712v18.642H200Z" transform="translate(-112.539 -151.683)"/><rect class="d" width="50" height="93" rx="16" transform="translate(149.21 111.889)"/><g transform="translate(149.601 120.782)"><path class="e" d="M360,304h49.712v3.107H360Z" transform="translate(-360 -282.251)"/><path class="e" d="M387.107,260.428A3.107,3.107,0,0,1,384,257.321v-6.214a3.107,3.107,0,1,1,6.214,0v6.214A3.107,3.107,0,0,1,387.107,260.428Z" transform="translate(-374.679 -248)"/><path class="e" d="M387.107,340.428A3.107,3.107,0,0,1,384,337.321v-6.214a3.107,3.107,0,1,1,6.214,0v6.214A3.107,3.107,0,0,1,387.107,340.428Z" transform="translate(-374.679 -296.93)"/></g><path class="f" d="M0,0H49.712V37.284H0Z" transform="translate(137.173 192.243) rotate(180)"/><path class="e" d="M255.535,366.214H243.107a3.107,3.107,0,1,1,0-6.214h12.428a3.107,3.107,0,0,1,0,6.214Z" transform="translate(-137.004 -195.72)"/><path class="g" d="M0,0H43.5V18.642H0Z" transform="translate(75.033 192.243) rotate(180)"/><path class="g" d="M0,0H43.5V12.428H0Z" transform="translate(75.033 161.173) rotate(180)"/><path class="e" d="M280,264h18.642v9.321H280Z" transform="translate(-161.469 -137.004)"/><path class="e" d="M200,264h18.642v9.321H200Z" transform="translate(-112.539 -137.004)"/><path class="h" d="M200,232h18.642v6.208a6.22,6.22,0,0,1-6.22,6.22h-6.2a6.22,6.22,0,0,1-6.22-6.22Z" transform="translate(-112.539 -117.432)"/><path class="c" d="M296,48h74.568V79.07H296Z" transform="translate(-171.255 -4.893)"/><path class="g" d="M315.107,84.428A3.107,3.107,0,0,1,312,81.321V75.107a3.107,3.107,0,1,1,6.214,0v6.214A3.107,3.107,0,0,1,315.107,84.428Z" transform="translate(-181.041 -19.572)"/><path class="g" d="M411.107,84.428A3.107,3.107,0,0,1,408,81.321V75.107a3.107,3.107,0,1,1,6.214,0v6.214A3.107,3.107,0,0,1,411.107,84.428Z" transform="translate(-239.757 -19.572)"/><path class="b" d="M296,128h74.568v9.321H296Z" transform="translate(-171.255 -53.823)"/><path class="d" d="M99.107,96.856A3.107,3.107,0,0,1,96,93.749V75.107a3.107,3.107,0,0,1,6.214,0V93.749A3.107,3.107,0,0,1,99.107,96.856Z" transform="translate(-48.93 -19.572)"/><path class="i" d="M95.07,146.642H64L73.321,128H85.749Z" transform="translate(-29.358 -53.823)"/><path class="d" d="M219.107,96.856A3.107,3.107,0,0,1,216,93.749V75.107a3.107,3.107,0,0,1,6.214,0V93.749A3.107,3.107,0,0,1,219.107,96.856Z" transform="translate(-122.325 -19.572)"/><path class="i" d="M215.07,146.642H184L193.321,128h12.428Z" transform="translate(-102.753 -53.823)"/><path class="b" d="M24,48H129.638V60.428H24Z" transform="translate(-4.893 -4.893)"/><path class="d" d="M38.214,248a6.214,6.214,0,0,1,6.214,6.214v9.321H32v-9.321A6.214,6.214,0,0,1,38.214,248Z" transform="translate(-9.786 -127.218)"/><circle class="f" cx="3" cy="3" r="3" transform="translate(97.21 142.889)"/><circle class="f" cx="3" cy="3" r="3" transform="translate(109.21 142.889)"/><ellipse class="f" cx="3.5" cy="3" rx="3.5" ry="3" transform="translate(121.21 142.889)"/><path class="e" d="M32,280H44.428v3.107H32Z" transform="translate(-9.786 -146.79)"/><path class="a" d="M280,48h6.214V60.428H280Z" transform="translate(-161.469 -4.893)"/><path class="g" d="M376,48h6.214V79.07H376Z" transform="translate(-220.185 -4.893)"/><path class="g" d="M92.354,291.107H24v-1.553A1.554,1.554,0,0,1,25.554,288h66.8Z" transform="translate(-4.893 -151.683)"/><path class="g" d="M328,288h10.875a1.554,1.554,0,0,1,1.554,1.553v1.553H328Z" transform="translate(-190.827 -151.683)"/><path class="e" d="M216,80h6.214v6.214H216Z" transform="translate(-122.325 -24.465)"/><path class="e" d="M96,80h6.214v6.214H96Z" transform="translate(-48.93 -24.465)"/><path class="a" d="M200,336h49.712v3.107H200Z" transform="translate(-112.539 -181.041)"/><path d="M387.107,260.428a3.107,3.107,0,0,0,3.107-3.107v-6.214a3.107,3.107,0,1,0-6.214,0v6.214A3.107,3.107,0,0,0,387.107,260.428Z" transform="translate(-225.078 -127.218)"/><path d="M387.107,328A3.107,3.107,0,0,0,384,331.107v6.214a3.107,3.107,0,1,0,6.214,0v-6.214A3.107,3.107,0,0,0,387.107,328Z" transform="translate(-225.078 -176.148)"/><path d="M151.8,314.513a9.266,9.266,0,0,0,4.016.911H193.1a9.331,9.331,0,0,0,9.321-9.321V225.321A9.332,9.332,0,0,0,193.1,216H155.815a9.331,9.331,0,0,0-9.321,9.321v15.535H140.28v-6.214a3.107,3.107,0,0,0-3.107-3.107H118.531a3.107,3.107,0,0,0-3.107,3.107v6.214H109.21v-6.214a3.1,3.1,0,0,0-.913-2.2,9.272,9.272,0,0,0,.913-4.015h6.214a3.107,3.107,0,1,0,0-6.214H109.21a3.107,3.107,0,0,0-3.107-3.107H87.461a3.107,3.107,0,0,0-3.107,3.107v6.207a9.271,9.271,0,0,0,.913,4.021,3.1,3.1,0,0,0-.913,2.2v6.214H68.819v-6.214h3.107a3.107,3.107,0,1,0,0-6.214H68.819v-3.107a9.321,9.321,0,0,0-18.642,0v6.214a3.107,3.107,0,0,0,6.214,0v-6.214a3.107,3.107,0,0,1,6.214,0v15.535H37.749v-6.214a9.321,9.321,0,0,0-18.642,0v6.214A3.107,3.107,0,0,0,16,243.963v68.354a3.107,3.107,0,0,0,3.107,3.107H149.6a3.1,3.1,0,0,0,2.2-.911Zm41.3-5.3H155.815a3.11,3.11,0,0,1-3.107-3.107V253.284h43.5V306.1A3.11,3.11,0,0,1,193.1,309.21Zm-40.391-83.889a3.11,3.11,0,0,1,3.107-3.107H193.1a3.11,3.11,0,0,1,3.107,3.107V247.07h-43.5ZM134.066,247.07V259.5h-43.5V247.07Zm-43.5,18.642h43.5v31.07h-43.5Zm31.07-27.963h12.428v3.107H121.638Zm-31.07,3.107v-3.107H103v3.107Zm0-15.535H103v3.1a3.117,3.117,0,0,1-3.114,3.114h-6.2a3.117,3.117,0,0,1-3.114-3.114Zm-65.247,9.321a3.107,3.107,0,0,1,6.214,0v6.214H25.321ZM146.494,309.21H22.214V247.07h62.14v52.819A3.107,3.107,0,0,0,87.461,303h49.712a3.107,3.107,0,0,0,3.107-3.107V247.07h6.214Z" transform="translate(0 -107.646)"/><path d="M255.535,360H243.107a3.107,3.107,0,1,0,0,6.214h12.428a3.107,3.107,0,0,0,0-6.214Z" transform="translate(-137.004 -195.72)"/><path d="M94.605,376h-43.5A3.107,3.107,0,0,0,48,379.107v18.642a3.107,3.107,0,0,0,3.107,3.107h43.5a3.107,3.107,0,0,0,3.107-3.107V379.107A3.107,3.107,0,0,0,94.605,376ZM91.5,394.642H54.214V382.214H91.5Z" transform="translate(-19.572 -205.506)"/><path d="M94.605,312h-43.5A3.107,3.107,0,0,0,48,315.107v12.428a3.107,3.107,0,0,0,3.107,3.107h43.5a3.107,3.107,0,0,0,3.107-3.107V315.107A3.107,3.107,0,0,0,94.605,312ZM91.5,324.428H54.214v-6.214H91.5Z" transform="translate(-19.572 -166.362)"/><path d="M315.107,84.428a3.107,3.107,0,0,0,3.107-3.107V75.107a3.107,3.107,0,1,0-6.214,0v6.214A3.107,3.107,0,0,0,315.107,84.428Z" transform="translate(-181.041 -19.572)"/><path d="M411.107,84.428a3.107,3.107,0,0,0,3.107-3.107V75.107a3.107,3.107,0,1,0-6.214,0v6.214A3.107,3.107,0,0,0,411.107,84.428Z" transform="translate(-239.757 -19.572)"/><path d="M19.107,58.642H47.07V71.07H43.963a3.107,3.107,0,0,0-2.779,1.717L31.863,91.429a3.107,3.107,0,0,0,2.779,4.5h31.07a3.107,3.107,0,0,0,2.779-4.5L59.17,72.787a3.107,3.107,0,0,0-2.779-1.717H53.284V58.642H93.675V71.07H90.568a3.107,3.107,0,0,0-2.779,1.717L78.468,91.429a3.107,3.107,0,0,0,2.779,4.5h31.07a3.107,3.107,0,0,0,2.779-4.5l-9.321-18.642A3.107,3.107,0,0,0,103,71.07H99.889V58.642h21.749V83.5a3.107,3.107,0,0,0,3.107,3.107h74.568A3.107,3.107,0,0,0,202.42,83.5V43.107A3.107,3.107,0,0,0,199.313,40H19.107A3.107,3.107,0,0,0,16,43.107V55.535A3.107,3.107,0,0,0,19.107,58.642Zm41.578,31.07H39.669l6.214-12.428h8.588Zm46.605,0H86.274l6.214-12.428h8.588Zm20.562-43.5h27.963V71.07H127.852Zm68.354,34.177H127.852V77.284h68.354Zm0-9.321H162.029V46.214h34.177ZM22.214,46.214h99.424v6.214H22.214Z"/><circle cx="3" cy="3" r="3" transform="translate(97.21 142.889)"/><circle cx="3" cy="3" r="3" transform="translate(109.21 142.889)"/><ellipse cx="3.5" cy="3" rx="3.5" ry="3" transform="translate(121.21 142.889)"/></g></svg>