<svg xmlns="http://www.w3.org/2000/svg" width="116.259" height="201.778" viewBox="0 0 116.259 201.778"><defs><style>.a{fill:#06f5dd;}.b{fill:#8cfff3;}.c{fill:#bfbfbf;}.d{fill:#dbdbdb;}.e{fill:#fff;}.f{fill:#ffcd69;}.g{fill:#ff9171;}.h{fill:#ffda8f;}.i{fill:none;stroke:#000;stroke-width:5px;}.j{fill:#fed841;}.k{fill:#fdb118;}.l{fill:#ff1f2e;}.m{fill:#bf0030;}.n{fill:#ff4d55;}.o{fill:#fef7d5;}.p{fill:#ffdea8;}</style></defs><g transform="translate(-266.756 -4697.392)"><g transform="translate(266.756 4697.392)"><path class="a" d="M359.646,49.323V186.075L336,197.9V37.5Z" transform="translate(-246.343 -22.721)"/><path class="b" d="M214.525,37.5V197.9L116,186.075V49.323Z" transform="translate(-113.044 -22.721)"/><g transform="translate(89.657 2.956)"><path class="c" d="M347.823,414.5,336,449.969h11.823a11.858,11.858,0,0,0,11.823-11.823V414.5Z" transform="translate(-336 -254.102)"/><path class="c" d="M347.823,7.5H336l11.823,23.646h11.823V19.323A11.858,11.858,0,0,0,347.823,7.5Z" transform="translate(-336 -7.5)"/></g><g transform="translate(2.956 2.956)"><path class="d" d="M214.525,414.5v23.646A11.858,11.858,0,0,1,202.7,449.969H127.823A11.858,11.858,0,0,1,116,438.146V414.5Z" transform="translate(-116 -254.102)"/><path class="d" d="M214.525,19.323V31.146H116V19.323A11.858,11.858,0,0,1,127.823,7.5H202.7A11.858,11.858,0,0,1,214.525,19.323Z" transform="translate(-116 -7.5)"/></g><circle class="e" cx="5.911" cy="5.911" r="5.911" transform="translate(52.218 175.177)"/><path d="M209.98,0h-86.7A14.8,14.8,0,0,0,108.5,14.779V187a14.8,14.8,0,0,0,14.779,14.779h86.7A14.8,14.8,0,0,0,224.759,187V14.779A14.8,14.8,0,0,0,209.98,0Zm-86.7,5.911h86.7a8.877,8.877,0,0,1,8.867,8.867v8.867H114.411V14.779A8.877,8.877,0,0,1,123.279,5.911Zm86.7,189.955h-86.7A8.877,8.877,0,0,1,114.411,187v-20.69h8.867a2.956,2.956,0,1,0,0-5.911h-8.867V29.557H218.848V160.4H135.1a2.956,2.956,0,1,0,0,5.911h83.746V187A8.877,8.877,0,0,1,209.98,195.867Z" transform="translate(-108.5)"/><path d="M251.456,35.911h11.823a2.956,2.956,0,0,0,0-5.911H251.456a2.956,2.956,0,0,0,0,5.911Z" transform="translate(-193.326 -18.177)"/><path d="M242.367,437a8.867,8.867,0,1,0,8.867,8.867A8.877,8.877,0,0,0,242.367,437Zm0,11.823a2.956,2.956,0,1,1,2.956-2.956A2.959,2.959,0,0,1,242.367,448.823Z" transform="translate(-184.238 -264.779)"/><ellipse cx="3.09" cy="2.704" rx="3.09" ry="2.704" transform="translate(43.064 12.042)"/></g><g transform="translate(285.433 4758.227)"><g transform="translate(0 0)"><g transform="translate(0.509 0.509)"><path class="f" d="M13.215,28.988a3.221,3.221,0,0,1-.824-6.334c4.4-1.167,9.1-5.868,10.266-10.266a3.22,3.22,0,0,1,6.225,1.651,21.208,21.208,0,0,1-5.6,9.239,21.208,21.208,0,0,1-9.239,5.6,3.224,3.224,0,0,1-.828.108Z" transform="translate(-9.996 -9.993)"/><g transform="translate(1.007 1.006)"><path class="g" d="M33.372,51.976a3.617,3.617,0,0,1-.925-7.113c5.322-1.412,11.011-7.1,12.423-12.423a3.616,3.616,0,0,1,6.991,1.855,25.1,25.1,0,0,1-6.63,10.93,25.1,25.1,0,0,1-10.93,6.63A3.622,3.622,0,0,1,33.372,51.976Z" transform="translate(-29.757 -29.75)"/></g><g transform="translate(6.065 6.065)"><path class="f" d="M132.294,148.067a3.221,3.221,0,0,1-.824-6.334c4.4-1.167,9.1-5.868,10.266-10.266a3.22,3.22,0,0,1,6.225,1.651,22.69,22.69,0,0,1-14.84,14.84A3.224,3.224,0,0,1,132.294,148.067Z" transform="translate(-129.075 -129.072)"/></g><g transform="translate(4.902 4.902)"><path class="h" d="M114.414,114.41a3.443,3.443,0,0,1-2.451,1.015,1.056,1.056,0,0,0-1.055,1.055,3.47,3.47,0,0,1-3.466,3.466,1.206,1.206,0,0,1,0-2.411,1.056,1.056,0,0,0,1.055-1.055,3.47,3.47,0,0,1,3.466-3.466,1.055,1.055,0,0,0,1.055-1.055,3.466,3.466,0,0,1,3.466-3.466,1.056,1.056,0,0,0,1.055-1.055,1.206,1.206,0,0,1,2.411,0,3.47,3.47,0,0,1-3.466,3.466,1.056,1.056,0,0,0-1.055,1.055A3.443,3.443,0,0,1,114.414,114.41Z" transform="translate(-106.238 -106.234)"/></g></g><g transform="translate(0 0)"><path d="M24.039,6.47c.026-.093.052-.186.077-.279a4.128,4.128,0,0,0-5.122-5.027,3.73,3.73,0,0,0-6.312,1.61,15.659,15.659,0,0,1-9.9,9.9A3.73,3.73,0,0,0,1.17,18.993a4.123,4.123,0,0,0,5.024,5.119l.279-.077a3.725,3.725,0,0,0,4.282,1.917,20.663,20.663,0,0,0,7.74-4.157.509.509,0,1,0-.651-.784,19.642,19.642,0,0,1-7.351,3.956,2.711,2.711,0,0,1-1.39-5.24,15.227,15.227,0,0,0,6.574-4.053A15.227,15.227,0,0,0,19.732,9.1a2.711,2.711,0,1,1,5.24,1.39,19.641,19.641,0,0,1-3.956,7.35.509.509,0,1,0,.784.651,20.662,20.662,0,0,0,4.157-7.74A3.736,3.736,0,0,0,24.039,6.47ZM1.113,16.978a2.714,2.714,0,0,1,1.925-3.315A15.226,15.226,0,0,0,9.613,9.61a15.227,15.227,0,0,0,4.053-6.574,2.712,2.712,0,0,1,4.313-1.423A4.1,4.1,0,0,0,16.14,4.075a13.621,13.621,0,0,1-1.33,3.179,3.976,3.976,0,0,0-3.125,3.883.545.545,0,0,1-.545.545h0a3.981,3.981,0,0,0-3.882,3.124,13.626,13.626,0,0,1-3.18,1.33,4.11,4.11,0,0,0-2.462,1.841,2.7,2.7,0,0,1-.5-1Zm12.118-3.751a2.937,2.937,0,0,1-2.09.866h0a1.565,1.565,0,0,0-1.564,1.564A2.96,2.96,0,0,1,6.62,18.614a.7.7,0,1,1,0-1.392,1.566,1.566,0,0,0,1.564-1.564A2.96,2.96,0,0,1,11.14,12.7h0A1.564,1.564,0,0,0,12.7,11.137a2.956,2.956,0,0,1,2.956-2.956,1.566,1.566,0,0,0,1.564-1.564.7.7,0,0,1,1.392,0,2.96,2.96,0,0,1-2.956,2.956A1.566,1.566,0,0,0,14.1,11.137a2.937,2.937,0,0,1-.866,2.09ZM6.573,20.476a3.7,3.7,0,0,0-.433,2.6l-.208.057A3.107,3.107,0,1,1,4.34,17.122q.477-.127.961-.3A1.714,1.714,0,0,0,6.62,19.633a3.976,3.976,0,0,0,.688-.061,3.739,3.739,0,0,0-.734.9ZM9.267,18.62A3.966,3.966,0,0,0,10.6,15.658a.547.547,0,0,1,.545-.545h0a3.975,3.975,0,0,0,3.975-3.975.546.546,0,0,1,.545-.545,3.966,3.966,0,0,0,2.963-1.329A15.911,15.911,0,0,1,9.267,18.62ZM19.574,7.309a3.976,3.976,0,0,0,.062-.692A1.714,1.714,0,0,0,16.827,5.3q.171-.484.3-.961A3.107,3.107,0,0,1,23.131,5.93c-.018.069-.038.138-.057.208a3.735,3.735,0,0,0-3.5,1.172Z" transform="translate(-0.003 0)"/><path d="M380.415,379.9a.51.51,0,1,0,.36.149A.515.515,0,0,0,380.415,379.9Z" transform="translate(-360.555 -360.552)"/></g></g><line class="i" x2="44.294" transform="translate(30.993 7.06)"/><line class="i" x2="44.294" transform="translate(30.993 45.026)"/><line class="i" x2="44.294" transform="translate(30.993 17.907)"/><line class="i" x2="44.294" transform="translate(30.993 55.873)"/><g transform="translate(3.893 39.15)"><path class="j" d="M217.834,0h3.5V16.6h-3.5Z" transform="translate(-209.923)"/><path class="k" d="M256,0h1.752V16.6H256Z" transform="translate(-246.337)"/><path class="j" d="M141.5,47.253h3.5v16.6h-3.5Z" transform="translate(-137.096 -45.084)"/><path class="k" d="M179.669,47.253h1.752v16.6h-1.752Z" transform="translate(-173.51 -45.084)"/><path class="j" d="M294.166,47.253h3.5v16.6h-3.5Z" transform="translate(-282.751 -45.084)"/><path class="k" d="M332.331,47.253h1.752v16.6h-1.752Z" transform="translate(-319.164 -45.084)"/><path class="j" d="M370.5,107.591H374v8.3h-3.5Z" transform="translate(-355.578 -102.652)"/><path class="k" d="M408.663,107.591h1.752v8.3h-1.752Z" transform="translate(-391.992 -102.652)"/><path class="j" d="M65.172,107.591h3.5v8.3h-3.5Z" transform="translate(-64.269 -102.652)"/><path class="k" d="M103.337,107.591h1.752v8.3h-1.752Z" transform="translate(-100.682 -102.652)"/><g transform="translate(0 8.211)"><path class="l" d="M62.533,194.164H47.795L45.5,178.872h5.478l.052.633a3.937,3.937,0,0,0,3.9,3.6H55.4a3.937,3.937,0,0,0,3.9-3.6l.052-.633h5.478Z" transform="translate(-45.501 -178.872)"/></g><path class="m" d="M265.663,178.872h-5.478l-.052.633a3.937,3.937,0,0,1-3.9,3.6H256v11.063h7.369Z" transform="translate(-246.337 -170.661)"/><path class="n" d="M173.209,178.872l-.052.633a3.937,3.937,0,0,1-3.9,3.6h-.464a3.937,3.937,0,0,1-3.9-3.6l-.051-.625.485,15.285h7.4l.486-15.292Z" transform="translate(-159.361 -170.661)"/><path class="l" d="M260.186,178.872h0l-.052.633a3.937,3.937,0,0,1-3.9,3.6H256v11.063h3.7Z" transform="translate(-246.337 -170.661)"/><g transform="translate(4.872 14.954)"><path class="o" d="M156.433,331.264c-2.731,0-4.79-1.181-4.79-2.748s2.059-2.748,4.79-2.748,4.79,1.181,4.79,2.748S159.164,331.264,156.433,331.264Z" transform="translate(-151.643 -325.769)"/></g><path class="p" d="M256,325.769v5.5c2.731,0,4.79-1.181,4.79-2.748S258.731,325.769,256,325.769Z" transform="translate(-246.337 -310.815)"/></g></g></g></svg>