<svg xmlns="http://www.w3.org/2000/svg" width="157.914" height="181.631" viewBox="0 0 157.914 181.631"><defs><style>.a{fill:#878787;}.b{fill:#13bf6d;}.c{fill:#fc5d3d;}.d{fill:#f0ab20;}.e{fill:#f2e1d6;}.f{fill:#fff;}.g{fill:#f0c020;}.h{fill:#72c1e8;}.i{fill:#c5e5ff;}</style></defs><g transform="translate(-18.377 -1.914)"><path class="a" d="M149.037,234.454v8.737a3.6,3.6,0,0,1-3.6,3.6H83.852a3.6,3.6,0,0,1-3.6-3.6v-8.737c1.008.065,2.024.1,3.047.1H145.99C147.013,234.555,148.028,234.519,149.037,234.454Z" transform="translate(-17.308 -65.049)"/><path class="b" d="M176.414,39.53c.591,5.363,5.54,7.825,11.64,5.759,4.538,4.273,10.713,5.132,13.972,1.872s2.4-9.434-1.872-13.972c2.081-6.143-.436-11.053-5.759-11.64.774-3.719.141-7.128-2.089-9.36-4.5-4.5-13.809-2.5-20.782,4.469s-8.974,16.277-4.469,20.782C169.286,39.671,172.695,40.3,176.414,39.53Z" transform="translate(-40.917 -2.201)"/><path class="b" d="M67.327,95.786c5.741-.633,8.376-5.929,6.164-12.458,4.574-4.858,5.493-11.467,2-14.956s-10.1-2.57-14.956,2c-6.575-2.228-11.83.467-12.458,6.164-3.982-.829-7.631-.151-10.019,2.236-4.821,4.821-2.68,14.781,4.784,22.245s17.423,9.605,22.245,4.784C67.478,103.416,68.156,99.767,67.327,95.786Z" transform="translate(-4.786 -17.997)"/><path class="c" d="M68.106,28.982a10.189,10.189,0,0,0,14.41,0l-14.41-14.41A10.189,10.189,0,0,0,68.106,28.982Z" transform="translate(-13.076 -3.541)"/><circle class="b" cx="4.35" cy="4.35" r="4.35" transform="translate(85.529 58.183) rotate(-13.3)"/><circle class="c" cx="4.35" cy="4.35" r="4.35" transform="translate(111.632 48.006) rotate(-13.3)"/><path class="d" d="M112.186,7.884c-5.028,5.028-4.128,14.091-.239,17.98,3.086,3.086,7.29,2.13,11.408-.919a29.787,29.787,0,0,0,5.892-5.892c3.049-4.118,4.006-8.321.919-11.408-3.889-3.889-12.952-4.789-17.98.239Z" transform="translate(-25.271 -0.7)"/><path class="e" d="M141.976,37.674a5.155,5.155,0,0,1-7.684-.441l-5.254-6.6a29.786,29.786,0,0,0,5.892-5.892l6.6,5.254a5.155,5.155,0,0,1,.441,7.684Z" transform="translate(-30.956 -6.384)"/><path class="f" d="M194.38,75.311a20.932,20.932,0,0,1-29.6,29.6l6.173-6.173,17.257-17.257Z" transform="translate(-40.953 -20.532)"/><path class="g" d="M190.6,83.881a12.2,12.2,0,0,1-17.257,17.257Z" transform="translate(-43.35 -22.929)"/><path class="g" d="M190.6,83.881a12.2,12.2,0,0,1-17.257,17.257Z" transform="translate(-43.35 -22.929)"/><path class="e" d="M171.562,156.9H34.711c0-9.8,6.331-19.26,17.755-19.26a17.711,17.711,0,0,1,15.1,8.442,13.012,13.012,0,0,1,13.894-5.87,15.347,15.347,0,1,1,29.963-6.6,13.034,13.034,0,0,1,17.913,7.181,8.881,8.881,0,0,1,15.14,2.737c10.8-8.708,27.089-.648,27.089,13.375Z" transform="translate(-4.569 -33.358)"/><path class="h" d="M171.583,170.774H24.49a3.6,3.6,0,0,0-3.594,3.9,45.957,45.957,0,0,0,42.748,41.97c1.008.065,2.024.1,3.047.1h62.692c1.023,0,2.038-.036,3.047-.1a45.961,45.961,0,0,0,42.748-41.963,3.605,3.605,0,0,0-3.594-3.9Z" transform="translate(-0.701 -47.236)"/><path class="i" d="M146.474,212.556H95.553a1.8,1.8,0,0,1,0-3.6h50.921a35.4,35.4,0,0,0,34.558-27.3,1.8,1.8,0,1,1,3.5.833A38.99,38.99,0,0,1,146.474,212.556Zm-58.124,0H83.781a1.8,1.8,0,1,1,0-3.6h4.569a1.8,1.8,0,0,1,0,3.6Z" transform="translate(-17.792 -49.893)"/><path d="M201.459,32.038c1.671-6.168-.852-11.139-5.734-12.616a11.043,11.043,0,0,0-2.857-9.217c-5.287-5.287-15.535-3.324-23.329,4.47S159.781,32.715,165.069,38c2.249,2.249,5.478,3.237,9.217,2.857,1.483,4.907,6.475,7.4,12.617,5.733,5.2,4.343,11.928,4.888,15.685,1.129S205.8,37.238,201.459,32.038Zm-1.417,13.139c-2.523,2.524-7.666,1.667-11.465-1.91a1.8,1.8,0,0,0-1.812-.394c-4.466,1.513-8.765.357-9.272-4.25a1.8,1.8,0,0,0-2.157-1.565c-3.263.678-6.008.112-7.72-1.6-3.47-3.47-1.937-10.935,3.245-16.913l3.44,3.44-.256,10.881a1.8,1.8,0,1,0,3.6.085l.175-7.446,7.885,7.883-.088,5.9a1.8,1.8,0,0,0,3.6.053l.036-2.4,5.872,5.872a1.8,1.8,0,1,0,2.546-2.546L191.8,34.388l2.743-.041a1.8,1.8,0,1,0-.053-3.6l-6.238.093-7.883-7.883,7.621-.179a1.8,1.8,0,0,0-.085-3.6l-11.057.26L173.407,16c5.978-5.182,13.444-6.716,16.914-3.245,1.712,1.712,2.28,4.453,1.6,7.72a1.8,1.8,0,0,0,1.565,2.157c4.438.49,5.84,4.582,4.25,9.272a1.8,1.8,0,0,0,.395,1.812c3.577,3.8,4.433,8.941,1.91,11.465Z" transform="translate(-40.205 -1.49)"/><path d="M65.65,106.38c2.4-2.4,3.444-5.857,3.011-9.867,5.3-1.543,7.934-6.9,6.135-13.443,4.646-5.522,5.246-12.682,1.259-16.669s-11.146-3.387-16.67,1.259c-6.594-1.814-11.912.882-13.443,6.135-4.008-.432-7.468.611-9.867,3.011-5.609,5.609-3.508,16.5,4.784,24.791S60.039,111.991,65.65,106.38ZM38.622,79.351C40.769,77.2,44.041,76.987,47,77.6a1.8,1.8,0,0,0,2.157-1.566c.55-4.985,5.186-6.318,10.091-4.656a1.8,1.8,0,0,0,1.812-.394c4.116-3.874,9.7-4.79,12.448-2.042S75.341,77.28,71.467,81.4a1.8,1.8,0,0,0-.394,1.812c1.643,4.85.368,9.536-4.656,10.091a1.8,1.8,0,0,0-1.566,2.157c.737,3.539.117,6.515-1.747,8.378-3.781,3.781-11.915,2.108-18.382-3.554l3.819-3.819c.043,0,11.7.276,11.744.276a1.8,1.8,0,0,0,.042-3.6l-8.266-.194,8.686-8.686,6.395.1a1.8,1.8,0,0,0,.027-3.6L64.3,80.707l6.5-6.5a1.8,1.8,0,0,0-2.546-2.546l-6.5,6.5L61.7,74.926a1.8,1.8,0,0,0-1.8-1.774h-.027A1.8,1.8,0,0,0,58.1,74.979l.1,6.731-8.687,8.684-.2-8.453a1.8,1.8,0,0,0-3.6.084l.279,11.889-3.819,3.819c-5.661-6.466-7.334-14.6-3.554-18.382Z" transform="translate(-4.073 -17.299)"/><path d="M66.133,12.6A11.99,11.99,0,0,0,83.09,29.556a1.8,1.8,0,0,0,0-2.547L68.679,12.6a1.8,1.8,0,0,0-2.546,0Zm2.546,14.411a8.391,8.391,0,0,1-1.137-10.455l11.59,11.59a8.4,8.4,0,0,1-10.453-1.135Z" transform="translate(-12.376 -2.842)"/><path d="M110.344,82.185a6.15,6.15,0,1,0,6.15-6.15A6.158,6.158,0,0,0,110.344,82.185Zm8.7,0a2.549,2.549,0,1,1-2.549-2.549A2.552,2.552,0,0,1,119.043,82.185Z" transform="translate(-25.726 -20.734)"/><path d="M158.9,68.06a6.15,6.15,0,1,0-6.15,6.15A6.158,6.158,0,0,0,158.9,68.06Zm-8.7,0a2.549,2.549,0,1,1,2.548,2.549A2.552,2.552,0,0,1,150.2,68.06Z" transform="translate(-35.867 -16.783)"/><path d="M126.5,31.969A6.956,6.956,0,1,0,136.27,22.2l-5.3-4.212c4.029-6.405,1.649-10.426-.238-12.314-4.561-4.561-14.759-5.529-20.526.239-5.751,5.751-4.834,15.932-.239,20.526,3.538,3.539,8.091,2.886,12.31.234Zm7.821-1.952a3.351,3.351,0,0,1-5-.289l-4.132-5.2a33.761,33.761,0,0,0,3.649-3.65l5.2,4.134A3.351,3.351,0,0,1,134.316,30.017Zm-21.8-6.127c-3.349-3.349-3.907-11.287.239-15.434,4.126-4.126,12.041-3.63,15.433-.239,2.141,2.142,1.774,5.191-1.1,9.067a28.2,28.2,0,0,1-5.512,5.511C117.709,25.664,114.659,26.032,112.517,23.891Z" transform="translate(-24.569 0)"/><path d="M119.823,21.414l-.651-.131a1.8,1.8,0,0,0-.71,3.531l.651.131a1.8,1.8,0,0,0,.71-3.531Z" transform="translate(-27.592 -5.408)"/><path d="M127.837,16.931a1.8,1.8,0,0,0,1.41-2.12l-.131-.651a1.8,1.8,0,0,0-3.531.71l.131.651a1.8,1.8,0,0,0,2.12,1.41Z" transform="translate(-29.979 -3.021)"/><path d="M148.684,101.127l1.422-1.422a1.8,1.8,0,0,0-2.546-2.546l-1.422,1.422a1.8,1.8,0,1,0,2.546,2.546Z" transform="translate(-35.591 -26.496)"/><path d="M52.041,51.654l1.422,1.422a1.8,1.8,0,0,0,2.546-2.546l-1.422-1.422a1.8,1.8,0,0,0-2.546,2.546Z" transform="translate(-9.269 -13.054)"/><path d="M201.549,91.119a22.6,22.6,0,0,0-6.6-17.776,1.845,1.845,0,0,0-2.543,0l-29.6,29.6a1.807,1.807,0,0,0,0,2.55,22.7,22.7,0,0,0,32.506-.367,1.8,1.8,0,0,0-.058-2.55,1.845,1.845,0,0,0-2.542.058,19.13,19.13,0,0,1-26.024,1.527l3.658-3.658a13.989,13.989,0,0,0,19.619-19.624l3.655-3.656a19.118,19.118,0,0,1,4.336,13.62,1.8,1.8,0,0,0,3.593.274ZM187.4,83.447A10.4,10.4,0,0,1,172.91,97.939C185.417,85.428,182.431,88.415,187.4,83.447Z" transform="translate(-40.254 -19.839)"/><path d="M211.915,105.342a1.834,1.834,0,0,0-2.377.908,1.8,1.8,0,1,0,2.377-.908Z" transform="translate(-53.43 -28.891)"/><path d="M22.47,175.907a1.838,1.838,0,0,0,2.384.893,1.8,1.8,0,0,0,.893-2.384,44.311,44.311,0,0,1-3.767-14.5,1.816,1.816,0,0,1,1.808-1.923H170.882a1.815,1.815,0,0,1,1.8,1.959,44.165,44.165,0,0,1-44,40.407H65.989a43.937,43.937,0,0,1-32.657-14.434,1.854,1.854,0,0,0-2.543-.115,1.806,1.806,0,0,0-.122,2.543.007.007,0,0,1,.007.007A47.566,47.566,0,0,0,61.142,203.71V210.8a5.408,5.408,0,0,0,5.4,5.4h61.583a5.408,5.408,0,0,0,5.4-5.4v-7.088a47.751,47.751,0,0,0,42.74-43.456,5.414,5.414,0,0,0-5.388-5.863h-2.172c-1.261-13.687-16.718-21.417-28.122-14.269a10.7,10.7,0,0,0-15.248-3.011,14.855,14.855,0,0,0-17.258-6.634,17.171,17.171,0,0,0-21.673-10.962,1.8,1.8,0,0,0,1.124,3.421,13.569,13.569,0,0,1,17.553,10.307,1.8,1.8,0,0,0,2.55,1.275,11.252,11.252,0,0,1,15.443,6.194,1.8,1.8,0,0,0,3.061.533,7.08,7.08,0,0,1,12.072,2.182,1.8,1.8,0,0,0,2.823.792c9.209-7.4,22.76-1.17,24.046,10.17H32.025c.751-8.547,6.48-15.631,15.871-15.659a15.86,15.86,0,0,1,13.563,7.592,1.8,1.8,0,0,0,3.061,0A11.173,11.173,0,0,1,76.5,141.27a1.807,1.807,0,0,0,2.139-2.19,13.478,13.478,0,0,1,.245-7.455,1.8,1.8,0,0,0-1.152-2.269,1.821,1.821,0,0,0-2.269,1.152,16.92,16.92,0,0,0-.756,6.9,14.792,14.792,0,0,0-11.668,4.927,19.472,19.472,0,0,0-15.14-7.2h-.05c-11.144,0-18.659,8.558-19.436,19.26H23.788a5.414,5.414,0,0,0-5.388,5.87,47.12,47.12,0,0,0,4.07,15.644ZM129.928,210.8a1.8,1.8,0,0,1-1.8,1.8H66.544a1.8,1.8,0,0,1-1.8-1.8v-6.852c.421.012.838.017,1.246.017h62.692c.408,0,.825-.006,1.246-.017Z" transform="translate(0 -32.658)"/><path d="M29.474,203.651a1.8,1.8,0,1,0,2.492.519A1.841,1.841,0,0,0,29.474,203.651Z" transform="translate(-2.877 -56.354)"/><path d="M105.757,125.472a1.847,1.847,0,0,0-2.55,0,1.8,1.8,0,1,0,2.55,0Z" transform="translate(-23.583 -34.42)"/><path d="M119.984,140.49v-1.443a1.8,1.8,0,1,0-3.6,0v1.443a1.8,1.8,0,0,0,3.6,0Z" transform="translate(-27.415 -37.857)"/><path d="M149,149.754a1.8,1.8,0,0,0,0-2.546l-1.021-1.021a1.8,1.8,0,0,0-2.546,2.546l1.021,1.021A1.8,1.8,0,0,0,149,149.754Z" transform="translate(-35.393 -40.21)"/><path d="M108.583,154.736l1.021-1.021a1.8,1.8,0,0,0-2.547-2.547l-1.021,1.021a1.8,1.8,0,0,0,2.547,2.547Z" transform="translate(-24.374 -41.604)"/><path d="M56.694,152.361a1.8,1.8,0,0,0,0,2.547l1.021,1.021a1.8,1.8,0,0,0,2.547-2.547l-1.021-1.021A1.8,1.8,0,0,0,56.694,152.361Z" transform="translate(-10.571 -41.937)"/><path d="M158.067,155.929l1.021-1.021a1.8,1.8,0,1,0-2.546-2.547l-1.021,1.021a1.8,1.8,0,1,0,2.546,2.547Z" transform="translate(-38.216 -41.937)"/><path d="M204.966,160.369l1.021-1.021a1.8,1.8,0,0,0-2.546-2.546l-1.021,1.021a1.8,1.8,0,0,0,2.546,2.546Z" transform="translate(-51.335 -43.18)"/></g></svg>